D:\school\WTK\thesis\model\3dpredictsim\Results\Batchsim_tmt_linear\Pog_s1_tmt_bCst_d02_k500_ig24_pas_GRF.mot
nRows=10
nColumns=19

name D:\school\WTK\thesis\model\3dpredictsim\Results\Batchsim_tmt_linear\Pog_s1_tmt_bCst_d02_k500_ig24_pas_GRF.mot
datacolumns 19
datarows 10
range 0.5544138961 0.6542083974
endheader
time 	ground_force_vx	ground_force_vy	ground_force_vz	ground_force_px	ground_force_py	ground_force_pz	1_ground_force_vx	1_ground_force_vy	1_ground_force_vz	1_ground_force_px	1_ground_force_py	1_ground_force_pz	ground_torque_x	ground_torque_y	ground_torque_z	1_ground_torque_x	1_ground_torque_y	1_ground_torque_z
        0.5544138961	       98.7802830302	      489.9833211770	        3.8218513808	        0.3758037929	        0.0000000000	        0.0329712176	      -74.4199029671	       62.5400939107	      -30.9038020127	        0.8624319589	        0.0000000000	       -0.0375243608	        0.0000000000	        0.0000000000	        0.0000000000	        0.0000000000	        0.0000000000	        0.0000000000	
        0.5655021740	       80.3024106613	      407.3560869243	        8.8094374405	        0.3796375925	        0.0000000000	        0.0319046583	     -117.0714023891	      138.4467774546	      -77.7380612445	        0.8696801676	        0.0000000000	       -0.0350573224	        0.0000000000	        0.0000000000	        0.0000000000	        0.0000000000	        0.0000000000	        0.0000000000	
        0.5765904520	       60.4562397454	      317.3868359725	        9.7014273584	        0.3856086056	        0.0000000000	        0.0297043565	      -50.0279829995	      281.3525617267	      -35.4241726939	        0.8754210854	        0.0000000000	       -0.0324547912	        0.0000000000	        0.0000000000	        0.0000000000	        0.0000000000	        0.0000000000	        0.0000000000	
        0.5876787299	       32.3151592600	      212.2734062740	        5.9935684071	        0.3972643933	        0.0000000000	        0.0244257699	      -48.6030394382	      449.9907611963	       -5.3583701603	        0.8794923828	        0.0000000000	       -0.0325145100	        0.0000000000	        0.0000000000	        0.0000000000	        0.0000000000	        0.0000000000	        0.0000000000	
        0.5987670078	       11.7585252800	      140.7104656177	        8.8019708626	        0.4130379397	        0.0000000000	        0.0162138610	      -80.0634444126	      659.7247277737	        6.8776539822	        0.8881550663	        0.0000000000	       -0.0350432837	        0.0000000000	        0.0000000000	        0.0000000000	        0.0000000000	        0.0000000000	        0.0000000000	
        0.6098552857	        1.5176681046	      113.2014212461	       10.6729267478	        0.4126321464	        0.0000000000	        0.0165644527	     -105.5925100494	      807.1442960777	       12.5071470728	        0.8944387882	        0.0000000000	       -0.0368717281	        0.0000000000	        0.0000000000	        0.0000000000	        0.0000000000	        0.0000000000	        0.0000000000	
        0.6209435636	       -2.0659492562	       74.5184315450	        9.8440712665	        0.4131360732	        0.0000000000	        0.0166212551	     -115.3032747499	      866.2263565569	       13.8181782137	        0.8985938928	        0.0000000000	       -0.0379590752	        0.0000000000	        0.0000000000	        0.0000000000	        0.0000000000	        0.0000000000	        0.0000000000	
        0.6320318416	       -7.8272249342	       31.0882872692	        5.7058764396	        0.4129020145	        0.0000000000	        0.0165487859	     -112.2797773437	      866.6156161996	       13.7885920553	        0.9017504237	        0.0000000000	       -0.0385850454	        0.0000000000	        0.0000000000	        0.0000000000	        0.0000000000	        0.0000000000	        0.0000000000	
        0.6431201195	        0.0872152584	       -0.0870510962	       -0.0018732286	        0.0000000000	        0.0000000000	        0.0000000000	     -103.1207867653	      844.7116427354	       14.0030992307	        0.9048583391	        0.0000000000	       -0.0389007143	        0.0000000000	        0.0000000000	        0.0000000000	        0.0000000000	        0.0000000000	        0.0000000000	
        0.6542083974	        0.0000660407	       -0.0000541733	        0.0000039928	        0.0000000000	        0.0000000000	        0.0000000000	      -90.5649277814	      810.5020109053	       14.7603128039	        0.9081086778	        0.0000000000	       -0.0390232413	        0.0000000000	        0.0000000000	        0.0000000000	        0.0000000000	        0.0000000000	        0.0000000000	
